<svg width="16" height="16" viewBox="0 0 16 16" fill="none" xmlns="http://www.w3.org/2000/svg">
<path fill-rule="evenodd" clip-rule="evenodd" d="M0.92888 13.6569C0.538355 14.0474 0.538355 14.6806 0.92888 15.0711C1.3194 15.4616 1.95257 15.4616 2.34309 15.0711L7.99995 9.41426L13.6568 15.0711C14.0473 15.4616 14.6805 15.4616 15.071 15.0711C15.4615 14.6806 15.4615 14.0474 15.071 13.6569L9.41417 8.00005L15.071 2.3432C15.4615 1.95268 15.4615 1.31951 15.071 0.928986C14.6805 0.538462 14.0473 0.538462 13.6568 0.928986L7.99995 6.58584L2.3431 0.928986C1.95258 0.538462 1.31941 0.538462 0.928889 0.928986C0.538365 1.31951 0.538366 1.95268 0.928889 2.3432L6.58574 8.00005L0.92888 13.6569Z" fill="#A0A0A4"/>
</svg>
